<?xml version="1.0" standalone="no"?>
<!DOCTYPE svg PUBLIC "-//W3C//DTD SVG 20010904//EN"
 "http://www.w3.org/TR/2001/REC-SVG-20010904/DTD/svg10.dtd">
<svg version="1.0" xmlns="http://www.w3.org/2000/svg"
 width="1900.000000pt" height="2000.000000pt" viewBox="0 0 1900.000000 2000.000000"
 preserveAspectRatio="xMidYMid meet">

<g transform="translate(0.000000,2000.000000) scale(0.100000,-0.100000)"
fill="#000000" stroke="none">
<path d="M5753 17036 c-96 -31 -178 -109 -214 -205 -22 -59 -37 -231 -38 -448
l-1 -102 -57 -16 c-96 -28 -380 -144 -508 -207 -359 -179 -725 -437 -1024
-724 l-119 -114 -73 123 c-185 311 -360 546 -554 745 -206 213 -384 333 -585
397 -278 88 -575 4 -792 -223 -345 -362 -340 -962 17 -1907 97 -255 202 -496
442 -1005 71 -151 149 -321 173 -377 25 -56 46 -101 47 -99 6 5 -101 282 -222
576 -229 555 -337 846 -424 1137 -185 617 -207 1070 -66 1367 119 251 369 409
619 393 398 -25 815 -455 1285 -1325 l83 -153 172 168 c382 375 727 621 1148
822 129 62 402 171 426 171 12 0 20 -167 27 -585 5 -343 22 -917 33 -1131 l7
-131 322 101 321 101 6 140 c11 247 25 759 32 1173 l7 402 -29 0 c-30 0 -149
-16 -196 -26 l-28 -6 0 -234 c0 -259 -4 -280 -60 -309 -50 -26 -97 -20 -136
19 l-34 34 0 511 c0 374 3 517 12 536 15 34 56 55 105 55 73 0 113 -52 113
-146 l0 -56 33 6 c17 3 74 11 126 17 l94 12 -6 116 c-10 211 -65 319 -193 382
-59 29 -78 34 -158 36 -57 2 -107 -2 -133 -11z"/>
<path d="M6220 16429 c-90 -10 -323 -46 -352 -55 -16 -5 -18 -20 -18 -125 0
-65 3 -119 8 -119 4 0 45 7 92 15 227 40 326 48 575 48 340 0 574 -31 784
-105 334 -117 480 -306 441 -569 -55 -381 -356 -700 -915 -970 -285 -138 -555
-235 -1130 -408 -330 -99 -488 -152 -727 -242 -1371 -519 -2063 -1308 -2257
-2574 -58 -381 -51 -823 20 -1200 89 -475 280 -967 532 -1370 78 -124 75 -113
-17 65 -251 487 -383 910 -448 1440 -20 164 -17 652 6 820 165 1234 746 1989
1918 2491 302 129 576 222 1103 374 354 102 686 211 880 290 634 257 1029 578
1200 972 54 125 77 223 82 355 7 143 -11 234 -67 346 -145 288 -524 469 -1095
522 -130 12 -494 11 -615 -1z"/>
<path d="M8364 14826 c-71 -33 -125 -85 -189 -180 -205 -309 -363 -933 -434
-1721 -26 -289 -41 -553 -41 -740 0 -84 -3 -186 -6 -228 l-7 -76 -70 -31
c-151 -68 -627 -216 -814 -254 -85 -18 -726 -106 -731 -101 -2 1 9 227 23 501
29 580 71 1493 81 1773 6 174 5 194 -8 188 -9 -3 -144 -42 -299 -87 -156 -45
-288 -85 -293 -90 -27 -27 227 -4829 260 -4908 17 -41 52 -41 72 0 16 33 45
498 136 2151 8 143 16 260 18 262 4 4 275 44 573 85 336 46 687 133 925 228
l125 50 7 -77 c3 -42 11 -166 18 -276 60 -1067 281 -1949 615 -2450 232 -349
458 -499 770 -512 135 -6 210 9 338 66 198 89 420 299 478 451 38 101 17 239
-49 312 -37 42 -101 77 -137 78 -31 0 -137 -54 -167 -86 -59 -63 -88 -171 -68
-253 13 -56 62 -131 85 -131 21 0 20 -5 -25 -65 -100 -135 -288 -235 -443
-235 -182 0 -329 85 -447 259 -59 88 -150 282 -199 424 -105 305 -183 747
-226 1272 -25 310 -39 1013 -28 1395 l9 335 57 95 c242 400 453 1052 528 1629
59 458 22 743 -116 884 -85 85 -217 111 -321 63z m261 -112 c25 -10 54 -76 66
-156 15 -94 6 -402 -16 -563 -69 -505 -243 -1108 -414 -1431 l-20 -39 -1 56
c0 65 33 495 55 714 72 705 184 1295 266 1399 21 27 35 31 64 20z"/>
<path d="M14688 14801 c-334 -110 -570 -592 -640 -1306 -9 -86 -13 -276 -12
-565 3 -776 38 -1365 109 -1835 l24 -160 -51 -120 c-144 -341 -251 -525 -305
-525 -86 0 -151 230 -173 611 -17 300 13 690 67 854 21 67 67 156 89 177 42
37 74 41 128 14 28 -14 51 -24 52 -23 1 1 -3 36 -7 77 -8 64 -13 78 -37 98
-81 67 -220 71 -345 9 -185 -92 -354 -312 -422 -551 -24 -85 -55 -281 -55
-350 0 -18 -33 -127 -74 -242 -254 -721 -433 -1103 -510 -1092 -18 3 -21 11
-24 58 -1 30 15 208 37 395 45 381 56 499 71 730 45 714 -72 1186 -325 1301
-79 37 -172 50 -230 34 -85 -24 -192 -144 -273 -305 -50 -101 -120 -287 -171
-456 l-48 -161 -6 273 c-3 151 -11 294 -17 319 -16 63 -52 97 -130 121 -128
42 -338 18 -370 -41 -6 -11 -10 -130 -10 -294 l0 -274 -91 -259 c-172 -486
-310 -827 -435 -1073 -103 -203 -168 -282 -195 -238 -14 21 -10 436 6 668 23
325 75 745 100 811 26 68 -259 189 -452 193 -54 1 -76 -3 -88 -15 -12 -11 -25
-73 -45 -200 -48 -314 -173 -756 -269 -954 -69 -140 -138 -215 -199 -215 -20
0 -52 31 -71 68 -42 81 -65 399 -51 686 28 539 133 987 256 1096 34 29 42 32
90 28 53 -5 172 -56 195 -84 9 -11 1 -23 -33 -56 -48 -47 -73 -111 -63 -158 7
-33 63 -87 100 -96 66 -16 167 42 207 119 51 102 14 251 -88 347 -95 90 -175
110 -357 91 -340 -37 -585 -199 -727 -481 -106 -210 -160 -476 -160 -783 0
-176 9 -259 41 -381 78 -306 293 -532 552 -581 94 -18 129 -19 181 -4 85 24
197 170 275 358 21 50 41 94 44 98 4 3 7 -24 7 -60 0 -90 26 -269 56 -383 66
-256 173 -367 354 -368 59 0 86 5 125 24 71 34 197 165 284 295 96 144 239
435 349 712 l89 222 -5 -368 c-5 -436 0 -534 32 -566 32 -32 105 -40 180 -20
75 20 170 70 200 106 30 35 59 186 90 469 20 178 33 252 79 430 99 386 201
686 307 905 90 186 162 254 197 185 24 -48 17 -147 -52 -690 -75 -599 -79
-649 -80 -1000 0 -301 2 -333 23 -428 45 -203 111 -341 190 -396 79 -54 196
-77 274 -53 194 60 418 416 631 1000 l54 147 32 -99 c46 -138 107 -239 205
-336 118 -117 239 -175 394 -190 84 -9 110 3 176 76 57 63 123 173 211 349
l67 134 29 -109 c95 -368 229 -645 358 -740 94 -68 210 -89 286 -49 103 53
230 279 335 593 71 214 195 720 261 1066 11 61 29 143 39 183 22 85 18 125
-18 152 -31 25 -58 25 -71 2 -12 -23 -56 -204 -117 -481 -117 -533 -230 -921
-334 -1138 -55 -116 -91 -168 -131 -189 -38 -19 -38 -19 -59 29 -58 131 -116
936 -123 1687 l-2 245 77 260 c164 558 292 1126 345 1530 24 186 24 583 0 730
-34 212 -83 310 -177 357 -74 38 -156 44 -232 19z m180 -207 c68 -82 97 -252
89 -514 -6 -188 -27 -350 -83 -635 -40 -203 -140 -644 -183 -810 l-29 -110 -1
235 c-1 477 25 1199 54 1492 36 351 74 438 153 342z"/>
<path d="M11446 9660 c-122 -31 -283 -159 -375 -300 -180 -275 -299 -705 -331
-1195 -13 -200 -13 -606 0 -1015 20 -632 46 -995 100 -1372 17 -114 30 -217
30 -228 0 -26 -104 -269 -195 -455 -100 -204 -152 -259 -216 -225 -46 25 -95
169 -126 378 -14 95 -18 183 -18 462 0 279 4 367 18 462 25 166 51 262 94 348
60 118 124 146 204 90 16 -12 32 -20 35 -17 8 8 -13 157 -25 171 -6 7 -34 26
-63 42 -47 25 -63 29 -133 28 -178 -2 -363 -128 -507 -344 -94 -142 -145 -292
-174 -515 -13 -97 -27 -150 -76 -285 -74 -204 -227 -583 -302 -750 -102 -226
-220 -410 -262 -410 -23 0 -27 66 -21 379 8 400 50 872 103 1142 9 48 14 94
11 102 -27 70 -322 176 -488 177 -92 0 -94 -3 -129 -230 -32 -211 -46 -272
-114 -522 -145 -527 -291 -775 -418 -707 -28 15 -53 78 -75 184 -26 128 -26
682 0 895 49 405 120 685 208 822 40 62 71 81 132 79 56 -1 172 -49 207 -86
l21 -22 -36 -27 c-36 -28 -67 -78 -79 -130 -17 -71 58 -156 139 -156 85 0 186
93 206 189 21 102 -31 244 -115 318 -71 62 -138 87 -247 91 -283 12 -580 -103
-752 -292 -133 -145 -233 -366 -278 -611 -33 -181 -221 -733 -408 -1198 -123
-308 -246 -517 -302 -517 -11 0 -20 11 -24 31 -8 34 -8 27 45 489 63 535 73
683 74 1020 1 328 -8 444 -49 617 -47 197 -133 368 -220 436 -54 43 -133 75
-208 86 -125 18 -204 -19 -309 -144 -114 -134 -233 -352 -330 -605 -25 -63
-54 -140 -66 -170 l-22 -55 8 140 c12 233 9 710 -6 805 -56 362 -185 551 -392
576 -77 9 -129 -8 -189 -62 -149 -134 -281 -459 -431 -1058 l-47 -190 -7 185
c-9 225 -15 262 -52 300 -68 71 -268 101 -403 60 -47 -14 -76 -29 -85 -44 -11
-18 -15 -123 -20 -552 -3 -291 -9 -764 -12 -1050 -5 -381 -3 -531 5 -562 13
-48 41 -68 108 -79 79 -12 239 46 307 112 37 36 49 77 86 304 39 238 52 297
160 765 241 1038 322 1334 426 1552 40 83 75 126 87 106 23 -40 15 -258 -33
-928 -30 -402 -41 -544 -80 -955 -27 -291 -42 -570 -32 -605 13 -47 83 -67
262 -73 115 -3 153 -1 181 11 l36 15 7 103 c9 131 37 293 76 451 144 577 490
1343 634 1403 38 16 52 11 65 -27 21 -59 9 -208 -59 -730 -76 -590 -84 -698
-85 -1058 0 -280 3 -350 18 -429 69 -360 192 -513 417 -514 59 -1 86 4 125 23
67 31 185 152 264 271 119 178 277 524 402 879 26 74 49 128 52 120 3 -8 14
-52 26 -98 80 -316 290 -549 556 -617 83 -21 200 -22 248 -2 84 36 193 190
272 383 l42 102 12 -135 c28 -316 104 -559 202 -648 80 -72 196 -105 295 -85
199 42 440 373 674 927 35 84 66 151 68 148 2 -2 12 -37 23 -79 90 -352 336
-589 649 -626 66 -8 80 -6 117 11 74 36 178 186 304 442 35 70 66 127 69 127
4 0 14 -35 24 -77 30 -131 124 -399 181 -520 95 -200 181 -298 302 -343 177
-66 278 0 418 272 88 171 163 378 239 663 26 97 27 97 51 -14 65 -298 201
-566 379 -746 132 -133 281 -205 463 -224 152 -16 338 19 452 84 24 14 45 24
46 23 1 -2 23 -47 49 -100 205 -421 563 -784 975 -989 295 -146 563 -209 889
-209 268 0 490 36 747 122 523 174 924 501 1149 938 100 196 144 345 167 570
24 246 -19 483 -124 685 -53 101 -190 243 -292 303 -142 83 -346 130 -517 119
-119 -8 -206 -31 -318 -84 -79 -38 -109 -59 -176 -127 -90 -90 -125 -151 -170
-301 -36 -120 -38 -298 -6 -420 41 -152 161 -356 268 -455 24 -23 19 -13 -17
26 -112 128 -189 292 -210 452 -20 148 19 319 107 464 73 120 221 222 369 253
90 19 280 19 369 0 173 -37 310 -145 391 -308 80 -163 109 -328 103 -580 -6
-195 -26 -275 -118 -464 -272 -561 -814 -924 -1515 -1014 -135 -17 -455 -6
-577 20 -399 86 -812 359 -1078 712 -101 135 -300 479 -300 520 0 8 21 39 46
69 58 70 117 192 145 300 30 113 32 272 5 349 -37 106 -123 170 -227 171 -110
0 -197 -54 -238 -149 -53 -125 -54 -352 -2 -556 l31 -120 -23 -18 c-12 -9 -58
-35 -102 -57 -81 -41 -160 -58 -208 -46 -121 30 -224 285 -261 641 -8 77 -18
233 -22 348 l-7 207 36 0 c62 0 139 21 217 58 62 29 94 54 186 146 163 163
268 337 348 577 60 181 79 294 80 464 0 172 -19 266 -78 383 -99 197 -235 277
-466 276 -299 -1 -510 -132 -715 -447 -185 -284 -295 -690 -312 -1142 -5 -155
-7 -168 -73 -430 -136 -542 -256 -866 -362 -981 -84 -91 -112 -49 -147 213
-44 331 -91 1190 -91 1673 l0 146 51 169 c147 495 295 1109 358 1482 48 286
63 447 62 678 0 459 -68 688 -221 754 -58 25 -158 35 -214 21z m161 -212 c116
-127 141 -483 67 -958 -41 -267 -164 -835 -244 -1135 l-30 -110 5 540 c6 680
24 1088 61 1384 17 133 47 265 65 287 17 21 53 17 76 -8z m1610 -2130 c27 -50
24 -300 -6 -473 -29 -171 -102 -466 -146 -596 -55 -161 -137 -318 -196 -378
-77 -79 -75 -86 -59 154 51 769 204 1323 367 1325 15 0 28 -11 40 -32z m447
-2204 c23 -22 20 -111 -5 -187 -26 -77 -88 -192 -99 -180 -24 26 -38 237 -20
304 19 70 85 103 124 63z"/>
</g>
</svg>
